<mxfile host="app.diagrams.net" modified="2021-10-14T00:21:01.447Z" agent="5.0 (Macintosh; Intel Mac OS X 10_15_7) AppleWebKit/537.36 (KHTML, like Gecko) Chrome/94.0.4606.71 Safari/537.36" etag="1PxW-xy2EIvecPtIWRic" version="15.5.2" type="github">
  <diagram id="IBiI976EnhP73xP4RAoW" name="Page-1">
    <mxGraphModel dx="2066" dy="1154" grid="1" gridSize="10" guides="1" tooltips="1" connect="1" arrows="1" fold="1" page="1" pageScale="1" pageWidth="980" pageHeight="1390" math="0" shadow="0">
      <root>
        <mxCell id="0" />
        <mxCell id="1" parent="0" />
        <mxCell id="RF3Orbu3h7VF005sQKiM-1" value="&lt;b&gt;&lt;font style=&quot;font-size: 21px&quot;&gt;业务模型图&lt;/font&gt;&lt;/b&gt;" style="rounded=0;whiteSpace=wrap;html=1;hachureGap=4;pointerEvents=0;" parent="1" vertex="1">
          <mxGeometry x="140" y="50" width="640" height="40" as="geometry" />
        </mxCell>
        <mxCell id="RF3Orbu3h7VF005sQKiM-2" value="&lt;b&gt;&lt;font style=&quot;font-size: 15px&quot;&gt;投资者&lt;/font&gt;&lt;/b&gt;" style="rounded=0;whiteSpace=wrap;html=1;hachureGap=4;pointerEvents=0;" parent="1" vertex="1">
          <mxGeometry x="140" y="90" width="160" height="40" as="geometry" />
        </mxCell>
        <mxCell id="RF3Orbu3h7VF005sQKiM-3" value="&lt;b&gt;&lt;font style=&quot;font-size: 15px&quot;&gt;基金经理&lt;/font&gt;&lt;/b&gt;" style="rounded=0;whiteSpace=wrap;html=1;hachureGap=4;pointerEvents=0;" parent="1" vertex="1">
          <mxGeometry x="300" y="90" width="160" height="40" as="geometry" />
        </mxCell>
        <mxCell id="RF3Orbu3h7VF005sQKiM-4" value="&lt;b&gt;&lt;font style=&quot;font-size: 15px&quot;&gt;股票量化系统&lt;/font&gt;&lt;/b&gt;" style="rounded=0;whiteSpace=wrap;html=1;hachureGap=4;pointerEvents=0;" parent="1" vertex="1">
          <mxGeometry x="460" y="90" width="160" height="40" as="geometry" />
        </mxCell>
        <mxCell id="RF3Orbu3h7VF005sQKiM-5" value="&lt;b&gt;&lt;font style=&quot;font-size: 15px&quot;&gt;数据仓库&lt;/font&gt;&lt;/b&gt;" style="rounded=0;whiteSpace=wrap;html=1;hachureGap=4;pointerEvents=0;" parent="1" vertex="1">
          <mxGeometry x="620" y="90" width="160" height="40" as="geometry" />
        </mxCell>
        <mxCell id="RF3Orbu3h7VF005sQKiM-6" value="" style="rounded=0;whiteSpace=wrap;html=1;hachureGap=4;pointerEvents=0;" parent="1" vertex="1">
          <mxGeometry x="140" y="130" width="160" height="900" as="geometry" />
        </mxCell>
        <mxCell id="RF3Orbu3h7VF005sQKiM-7" value="" style="rounded=0;whiteSpace=wrap;html=1;hachureGap=4;pointerEvents=0;" parent="1" vertex="1">
          <mxGeometry x="300" y="130" width="160" height="900" as="geometry" />
        </mxCell>
        <mxCell id="RF3Orbu3h7VF005sQKiM-8" value="" style="rounded=0;whiteSpace=wrap;html=1;hachureGap=4;pointerEvents=0;" parent="1" vertex="1">
          <mxGeometry x="460" y="130" width="160" height="900" as="geometry" />
        </mxCell>
        <mxCell id="RF3Orbu3h7VF005sQKiM-9" value="" style="rounded=0;whiteSpace=wrap;html=1;hachureGap=4;pointerEvents=0;" parent="1" vertex="1">
          <mxGeometry x="620" y="130" width="160" height="900" as="geometry" />
        </mxCell>
        <mxCell id="RF3Orbu3h7VF005sQKiM-36" style="edgeStyle=none;curved=1;rounded=0;orthogonalLoop=1;jettySize=auto;html=1;exitX=1;exitY=0.5;exitDx=0;exitDy=0;endArrow=open;startSize=14;endSize=14;sourcePerimeterSpacing=8;targetPerimeterSpacing=8;" parent="1" source="RF3Orbu3h7VF005sQKiM-10" edge="1">
          <mxGeometry relative="1" as="geometry">
            <mxPoint x="480" y="180" as="targetPoint" />
          </mxGeometry>
        </mxCell>
        <mxCell id="RF3Orbu3h7VF005sQKiM-10" value="上传历史数据" style="rounded=1;whiteSpace=wrap;html=1;hachureGap=4;pointerEvents=0;" parent="1" vertex="1">
          <mxGeometry x="320" y="150" width="120" height="60" as="geometry" />
        </mxCell>
        <mxCell id="RF3Orbu3h7VF005sQKiM-11" value="更新数据" style="rounded=1;whiteSpace=wrap;html=1;hachureGap=4;pointerEvents=0;" parent="1" vertex="1">
          <mxGeometry x="640" y="340" width="120" height="60" as="geometry" />
        </mxCell>
        <mxCell id="RF3Orbu3h7VF005sQKiM-13" value="自动分析更新数据，并更新系统模型" style="rounded=1;whiteSpace=wrap;html=1;hachureGap=4;pointerEvents=0;" parent="1" vertex="1">
          <mxGeometry x="480" y="420" width="120" height="60" as="geometry" />
        </mxCell>
        <mxCell id="RF3Orbu3h7VF005sQKiM-18" value="" style="endArrow=classic;html=1;startSize=14;endSize=14;sourcePerimeterSpacing=8;targetPerimeterSpacing=8;" parent="1" edge="1">
          <mxGeometry relative="1" as="geometry">
            <mxPoint x="700" y="400" as="sourcePoint" />
            <mxPoint x="600" y="450" as="targetPoint" />
            <Array as="points">
              <mxPoint x="700" y="450" />
            </Array>
          </mxGeometry>
        </mxCell>
        <mxCell id="RF3Orbu3h7VF005sQKiM-20" value="交易" style="rounded=1;whiteSpace=wrap;html=1;hachureGap=4;pointerEvents=0;" parent="1" vertex="1">
          <mxGeometry x="320" y="520" width="120" height="60" as="geometry" />
        </mxCell>
        <mxCell id="RF3Orbu3h7VF005sQKiM-21" value="" style="endArrow=classic;html=1;startSize=14;endSize=14;sourcePerimeterSpacing=8;targetPerimeterSpacing=8;exitX=0.5;exitY=1;exitDx=0;exitDy=0;entryX=1;entryY=0.5;entryDx=0;entryDy=0;" parent="1" source="RF3Orbu3h7VF005sQKiM-13" target="RF3Orbu3h7VF005sQKiM-20" edge="1">
          <mxGeometry relative="1" as="geometry">
            <mxPoint x="440" y="760" as="sourcePoint" />
            <mxPoint x="540" y="760" as="targetPoint" />
            <Array as="points">
              <mxPoint x="540" y="550" />
            </Array>
          </mxGeometry>
        </mxCell>
        <mxCell id="RF3Orbu3h7VF005sQKiM-22" value="Label" style="edgeLabel;resizable=0;html=1;align=center;verticalAlign=middle;" parent="RF3Orbu3h7VF005sQKiM-21" connectable="0" vertex="1">
          <mxGeometry relative="1" as="geometry" />
        </mxCell>
        <mxCell id="RF3Orbu3h7VF005sQKiM-23" value="交易建议" style="edgeLabel;html=1;align=center;verticalAlign=middle;resizable=0;points=[];" parent="RF3Orbu3h7VF005sQKiM-21" vertex="1" connectable="0">
          <mxGeometry x="-0.0235" relative="1" as="geometry">
            <mxPoint as="offset" />
          </mxGeometry>
        </mxCell>
        <mxCell id="RF3Orbu3h7VF005sQKiM-24" value="分析系统效果并计算收益" style="rounded=1;whiteSpace=wrap;html=1;hachureGap=4;pointerEvents=0;" parent="1" vertex="1">
          <mxGeometry x="320" y="640" width="120" height="60" as="geometry" />
        </mxCell>
        <mxCell id="RF3Orbu3h7VF005sQKiM-25" value="" style="endArrow=classic;html=1;startSize=14;endSize=14;sourcePerimeterSpacing=8;targetPerimeterSpacing=8;exitX=0.75;exitY=1;exitDx=0;exitDy=0;" parent="1" source="RF3Orbu3h7VF005sQKiM-13" edge="1">
          <mxGeometry relative="1" as="geometry">
            <mxPoint x="440" y="760" as="sourcePoint" />
            <mxPoint x="440" y="680" as="targetPoint" />
            <Array as="points">
              <mxPoint x="570" y="680" />
            </Array>
          </mxGeometry>
        </mxCell>
        <mxCell id="RF3Orbu3h7VF005sQKiM-26" value="Label" style="edgeLabel;resizable=0;html=1;align=center;verticalAlign=middle;" parent="RF3Orbu3h7VF005sQKiM-25" connectable="0" vertex="1">
          <mxGeometry relative="1" as="geometry" />
        </mxCell>
        <mxCell id="RF3Orbu3h7VF005sQKiM-27" value="收益率等模型参数" style="edgeLabel;html=1;align=center;verticalAlign=middle;resizable=0;points=[];" parent="RF3Orbu3h7VF005sQKiM-25" vertex="1" connectable="0">
          <mxGeometry x="0.0121" y="3" relative="1" as="geometry">
            <mxPoint as="offset" />
          </mxGeometry>
        </mxCell>
        <mxCell id="RF3Orbu3h7VF005sQKiM-28" value="观看系统说明，考虑是否投资" style="rounded=1;whiteSpace=wrap;html=1;hachureGap=4;pointerEvents=0;" parent="1" vertex="1">
          <mxGeometry x="160" y="770" width="120" height="60" as="geometry" />
        </mxCell>
        <mxCell id="RF3Orbu3h7VF005sQKiM-30" value="" style="endArrow=classic;html=1;startSize=14;endSize=14;sourcePerimeterSpacing=8;targetPerimeterSpacing=8;exitX=0.5;exitY=1;exitDx=0;exitDy=0;entryX=1;entryY=0.5;entryDx=0;entryDy=0;" parent="1" source="RF3Orbu3h7VF005sQKiM-24" target="RF3Orbu3h7VF005sQKiM-28" edge="1">
          <mxGeometry relative="1" as="geometry">
            <mxPoint x="440" y="750" as="sourcePoint" />
            <mxPoint x="540" y="750" as="targetPoint" />
            <Array as="points">
              <mxPoint x="380" y="800" />
            </Array>
          </mxGeometry>
        </mxCell>
        <mxCell id="RF3Orbu3h7VF005sQKiM-31" value="系统的可视化数据" style="edgeLabel;resizable=0;html=1;align=center;verticalAlign=middle;" parent="RF3Orbu3h7VF005sQKiM-30" connectable="0" vertex="1">
          <mxGeometry relative="1" as="geometry" />
        </mxCell>
        <mxCell id="RF3Orbu3h7VF005sQKiM-33" value="判断是否符合数据格式" style="rounded=1;whiteSpace=wrap;html=1;hachureGap=4;pointerEvents=0;" parent="1" vertex="1">
          <mxGeometry x="480" y="150" width="120" height="60" as="geometry" />
        </mxCell>
        <mxCell id="RF3Orbu3h7VF005sQKiM-34" value="" style="endArrow=classic;html=1;startSize=14;endSize=14;sourcePerimeterSpacing=8;targetPerimeterSpacing=8;exitX=1;exitY=0.5;exitDx=0;exitDy=0;entryX=0.5;entryY=0;entryDx=0;entryDy=0;" parent="1" source="RF3Orbu3h7VF005sQKiM-33" target="RF3Orbu3h7VF005sQKiM-11" edge="1">
          <mxGeometry relative="1" as="geometry">
            <mxPoint x="440" y="550" as="sourcePoint" />
            <mxPoint x="540" y="550" as="targetPoint" />
            <Array as="points">
              <mxPoint x="700" y="180" />
            </Array>
          </mxGeometry>
        </mxCell>
        <mxCell id="RF3Orbu3h7VF005sQKiM-35" value="是" style="edgeLabel;resizable=0;html=1;align=center;verticalAlign=middle;" parent="RF3Orbu3h7VF005sQKiM-34" connectable="0" vertex="1">
          <mxGeometry relative="1" as="geometry" />
        </mxCell>
        <mxCell id="RF3Orbu3h7VF005sQKiM-38" style="edgeStyle=none;curved=1;rounded=0;orthogonalLoop=1;jettySize=auto;html=1;exitX=1;exitY=0.5;exitDx=0;exitDy=0;endArrow=open;startSize=14;endSize=14;sourcePerimeterSpacing=8;targetPerimeterSpacing=8;entryX=0;entryY=0.5;entryDx=0;entryDy=0;" parent="1" source="RF3Orbu3h7VF005sQKiM-37" target="RF3Orbu3h7VF005sQKiM-11" edge="1">
          <mxGeometry relative="1" as="geometry" />
        </mxCell>
        <mxCell id="RF3Orbu3h7VF005sQKiM-41" value="" style="endArrow=classic;html=1;startSize=14;endSize=14;targetPerimeterSpacing=8;exitX=0.5;exitY=1;exitDx=0;exitDy=0;startArrow=none;" parent="1" source="RF3Orbu3h7VF005sQKiM-37" edge="1">
          <mxGeometry relative="1" as="geometry">
            <mxPoint x="500" y="270" as="sourcePoint" />
            <mxPoint x="550" y="350" as="targetPoint" />
          </mxGeometry>
        </mxCell>
        <mxCell id="RF3Orbu3h7VF005sQKiM-37" value="处理数据" style="rounded=1;whiteSpace=wrap;html=1;hachureGap=4;pointerEvents=0;" parent="1" vertex="1">
          <mxGeometry x="480" y="340" width="120" height="60" as="geometry" />
        </mxCell>
        <mxCell id="RF3Orbu3h7VF005sQKiM-47" value="" style="endArrow=classic;html=1;startSize=14;endSize=14;sourcePerimeterSpacing=8;targetPerimeterSpacing=8;exitX=0.5;exitY=1;exitDx=0;exitDy=0;" parent="1" source="RF3Orbu3h7VF005sQKiM-33" edge="1">
          <mxGeometry relative="1" as="geometry">
            <mxPoint x="500" y="250" as="sourcePoint" />
            <mxPoint x="540" y="350" as="targetPoint" />
          </mxGeometry>
        </mxCell>
        <mxCell id="RF3Orbu3h7VF005sQKiM-48" value="否" style="edgeLabel;resizable=0;html=1;align=center;verticalAlign=middle;" parent="RF3Orbu3h7VF005sQKiM-47" connectable="0" vertex="1">
          <mxGeometry relative="1" as="geometry" />
        </mxCell>
        <mxCell id="RF3Orbu3h7VF005sQKiM-50" value="结束" style="ellipse;whiteSpace=wrap;html=1;aspect=fixed;hachureGap=4;pointerEvents=0;" parent="1" vertex="1">
          <mxGeometry x="828.82" y="940" width="80" height="80" as="geometry" />
        </mxCell>
        <mxCell id="tUB1hqMQHlb-_KFJJpu0-9" value="" style="endArrow=classic;html=1;rounded=0;exitX=0.5;exitY=0;exitDx=0;exitDy=0;entryX=0.125;entryY=0.057;entryDx=0;entryDy=0;entryPerimeter=0;" edge="1" parent="1" source="RF3Orbu3h7VF005sQKiM-28" target="RF3Orbu3h7VF005sQKiM-7">
          <mxGeometry relative="1" as="geometry">
            <mxPoint x="310" y="570" as="sourcePoint" />
            <mxPoint x="410" y="570" as="targetPoint" />
            <Array as="points">
              <mxPoint x="220" y="185" />
            </Array>
          </mxGeometry>
        </mxCell>
        <mxCell id="tUB1hqMQHlb-_KFJJpu0-10" value="是" style="edgeLabel;resizable=0;html=1;align=center;verticalAlign=middle;" connectable="0" vertex="1" parent="tUB1hqMQHlb-_KFJJpu0-9">
          <mxGeometry relative="1" as="geometry" />
        </mxCell>
        <mxCell id="tUB1hqMQHlb-_KFJJpu0-11" value="" style="endArrow=classic;html=1;rounded=0;entryX=0;entryY=0.5;entryDx=0;entryDy=0;" edge="1" parent="1" target="RF3Orbu3h7VF005sQKiM-50">
          <mxGeometry relative="1" as="geometry">
            <mxPoint x="170" y="830" as="sourcePoint" />
            <mxPoint x="410" y="560" as="targetPoint" />
            <Array as="points">
              <mxPoint x="170" y="980" />
            </Array>
          </mxGeometry>
        </mxCell>
        <mxCell id="tUB1hqMQHlb-_KFJJpu0-12" value="否" style="edgeLabel;resizable=0;html=1;align=center;verticalAlign=middle;" connectable="0" vertex="1" parent="tUB1hqMQHlb-_KFJJpu0-11">
          <mxGeometry relative="1" as="geometry" />
        </mxCell>
        <mxCell id="tUB1hqMQHlb-_KFJJpu0-13" value="根据分层奖励机制获得奖金" style="rounded=1;whiteSpace=wrap;html=1;" vertex="1" parent="1">
          <mxGeometry x="320" y="870" width="120" height="60" as="geometry" />
        </mxCell>
        <mxCell id="tUB1hqMQHlb-_KFJJpu0-14" value="" style="endArrow=classic;html=1;rounded=0;exitX=0.928;exitY=1.022;exitDx=0;exitDy=0;exitPerimeter=0;" edge="1" parent="1" source="RF3Orbu3h7VF005sQKiM-24">
          <mxGeometry width="50" height="50" relative="1" as="geometry">
            <mxPoint x="440" y="700" as="sourcePoint" />
            <mxPoint x="430" y="870" as="targetPoint" />
          </mxGeometry>
        </mxCell>
        <mxCell id="tUB1hqMQHlb-_KFJJpu0-15" value="获得基金投资收益" style="rounded=1;whiteSpace=wrap;html=1;" vertex="1" parent="1">
          <mxGeometry x="170" y="870" width="120" height="60" as="geometry" />
        </mxCell>
        <mxCell id="tUB1hqMQHlb-_KFJJpu0-16" value="" style="endArrow=classic;html=1;rounded=0;exitX=0;exitY=0.5;exitDx=0;exitDy=0;entryX=1;entryY=0.5;entryDx=0;entryDy=0;" edge="1" parent="1" source="tUB1hqMQHlb-_KFJJpu0-13" target="tUB1hqMQHlb-_KFJJpu0-15">
          <mxGeometry width="50" height="50" relative="1" as="geometry">
            <mxPoint x="340" y="850" as="sourcePoint" />
            <mxPoint x="390" y="800" as="targetPoint" />
          </mxGeometry>
        </mxCell>
        <mxCell id="tUB1hqMQHlb-_KFJJpu0-17" value="" style="endArrow=classic;html=1;rounded=0;exitX=0.5;exitY=1;exitDx=0;exitDy=0;" edge="1" parent="1" source="tUB1hqMQHlb-_KFJJpu0-15">
          <mxGeometry width="50" height="50" relative="1" as="geometry">
            <mxPoint x="370" y="640" as="sourcePoint" />
            <mxPoint x="230" y="980" as="targetPoint" />
          </mxGeometry>
        </mxCell>
      </root>
    </mxGraphModel>
  </diagram>
</mxfile>
